<svg width="20" height="20" viewBox="0 0 20 20" fill="none" xmlns="http://www.w3.org/2000/svg"><path d="M1.88281 1.87549H13.1328C13.1328 1.87549 14.3828 1.87549 14.3828 3.12549V11.8755C14.3828 11.8755 14.3828 13.1255 13.1328 13.1255H1.88281C1.88281 13.1255 0.632812 13.1255 0.632812 11.8755V3.12549C0.632812 3.12549 0.632812 1.87549 1.88281 1.87549Z" stroke="#676879" stroke-width="1.2" stroke-linecap="round" stroke-linejoin="round"/><path d="M0.632812 5.61993H14.3828" stroke="#676879" stroke-width="1.2" stroke-linecap="round" stroke-linejoin="round"/><path d="M16.8823 5.61993V14.3699C16.8823 14.7015 16.7507 15.0194 16.5162 15.2538C16.2818 15.4882 15.9638 15.6199 15.6323 15.6199H4.38232" stroke="#676879" stroke-width="1.2" stroke-linecap="round" stroke-linejoin="round"/><path d="M19.3826 8.11621V16.8662C19.3826 17.1978 19.2509 17.5157 19.0165 17.7501C18.7821 17.9845 18.4641 18.1162 18.1326 18.1162H6.88257" stroke="#676879" stroke-width="1.2" stroke-linecap="round" stroke-linejoin="round"/></svg>