<svg width="20" height="20" viewBox="0 0 20 20" fill="none" xmlns="http://www.w3.org/2000/svg"><path d="M5.87023 11.7385H4.17756C3.42936 11.7385 2.71179 11.4412 2.18273 10.9122C1.65367 10.3831 1.35645 9.6656 1.35645 8.91737C1.35645 8.16913 1.65367 7.4516 2.18273 6.92254C2.71179 6.39348 3.42936 6.09625 4.17756 6.09625H5.87023V11.7385Z" stroke="#676879" stroke-width="1.2" stroke-linecap="round" stroke-linejoin="round"/><path d="M5.87012 11.735C9.18105 11.7353 12.418 12.7153 15.173 14.5516L16.0261 15.1204V2.70746L15.173 3.2762C12.418 5.11251 9.18105 6.09252 5.87012 6.0928V11.735Z" stroke="#676879" stroke-width="1.2" stroke-linecap="round" stroke-linejoin="round"/><path d="M18.2825 7.78906V10.046" stroke="#676879" stroke-width="1.2" stroke-linecap="round" stroke-linejoin="round"/><path d="M5.87012 11.7385C5.86964 12.4772 6.01945 13.2083 6.31045 13.8873C6.60144 14.5663 7.02753 15.179 7.56279 15.6881" stroke="#676879" stroke-width="1.2" stroke-linecap="round" stroke-linejoin="round"/></svg>