<svg width="20" height="20" viewBox="0 0 20 20" fill="none" xmlns="http://www.w3.org/2000/svg"><g clip-path="url(#clip0_1518_54236)"><path d="M16.6401 11.9388V5.14156C16.6401 4.86422 16.53 4.59822 16.3338 4.40211C16.1377 4.206 15.8717 4.09583 15.5944 4.09583H5.13704C4.8597 4.09583 4.59371 4.206 4.3976 4.40211C4.20149 4.59822 4.09131 4.86422 4.09131 5.14156V11.9388H16.6401Z" stroke="#676879" stroke-width="1.2" stroke-linecap="round" stroke-linejoin="round"/><path d="M18.1184 15.1721C18.1891 15.3314 18.219 15.5057 18.2052 15.6794C18.1914 15.8531 18.1345 16.0206 18.0395 16.1666C17.9446 16.3128 17.8146 16.4328 17.6615 16.5158C17.5083 16.5989 17.3369 16.6424 17.1626 16.6424H3.56809C3.39385 16.6424 3.22238 16.5989 3.06924 16.5158C2.91611 16.4328 2.78615 16.3128 2.69119 16.1666C2.59623 16.0206 2.53927 15.8531 2.52549 15.6794C2.51171 15.5057 2.54155 15.3314 2.61228 15.1721L4.09095 11.9366H16.6397L18.1184 15.1721Z" stroke="#676879" stroke-width="1.2" stroke-linecap="round" stroke-linejoin="round"/><path d="M9.3208 14.5527H11.4123" stroke="#676879" stroke-width="1.2" stroke-linecap="round" stroke-linejoin="round"/></g><defs><clipPath id="clip0_1518_54236"><rect width="16.7317" height="16.7317" fill="white" transform="translate(2 2)"/></clipPath></defs></svg>