<svg width="20" height="20" viewBox="0 0 20 20" fill="none" xmlns="http://www.w3.org/2000/svg"><g clip-path="url(#clip0_1953_322815)"><path d="M10 15.3059H17.4286" stroke="#676879" stroke-linecap="round" stroke-linejoin="round"/><path d="M15.3065 13.1835L17.429 15.3059L15.3065 17.4283" stroke="#676879" stroke-linecap="round" stroke-linejoin="round"/><path d="M5.75574 4.16329C5.75574 4.58551 5.92347 4.99045 6.22202 5.289C6.52058 5.58756 6.92551 5.75529 7.34774 5.75529C7.76996 5.75529 8.17489 5.58756 8.47345 5.289C8.77201 4.99045 8.93974 4.58551 8.93974 4.16329C8.93974 3.74106 8.77201 3.33613 8.47345 3.03758C8.17489 2.73902 7.76996 2.57129 7.34774 2.57129C6.92551 2.57129 6.52058 2.73902 6.22202 3.03758C5.92347 3.33613 5.75574 3.74106 5.75574 4.16329Z" stroke="#676879" stroke-linecap="round" stroke-linejoin="round"/><path d="M10 9.4695C10 9.89173 10.1677 10.2967 10.4663 10.5952C10.7648 10.8938 11.1698 11.0615 11.592 11.0615C12.0142 11.0615 12.4192 10.8938 12.7177 10.5952C13.0163 10.2967 13.184 9.89173 13.184 9.4695C13.184 9.04728 13.0163 8.64235 12.7177 8.34379C12.4192 8.04523 12.0142 7.8775 11.592 7.8775C11.1698 7.8775 10.7648 8.04523 10.4663 8.34379C10.1677 8.64235 10 9.04728 10 9.4695Z" stroke="#676879" stroke-linecap="round" stroke-linejoin="round"/><path d="M6.81677 15.3062C6.81677 15.7285 6.9845 16.1334 7.28306 16.4319C7.58162 16.7305 7.98655 16.8982 8.40877 16.8982C8.831 16.8982 9.23593 16.7305 9.53449 16.4319C9.83304 16.1334 10.0008 15.7285 10.0008 15.3062C10.0008 14.884 9.83304 14.4791 9.53449 14.1805C9.23593 13.882 8.831 13.7142 8.40877 13.7142C7.98655 13.7142 7.58162 13.882 7.28306 14.1805C6.9845 14.4791 6.81677 14.884 6.81677 15.3062Z" stroke="#676879" stroke-linecap="round" stroke-linejoin="round"/><path d="M10.0004 9.46973H5.49015C3.87838 9.46973 2.57178 10.7763 2.57178 12.3881C2.57178 13.9999 3.87838 15.3065 5.49015 15.3065H6.81669" stroke="#676879" stroke-linecap="round" stroke-linejoin="round"/><path d="M13.184 9.46953H14.7759C16.2411 9.46953 17.4289 8.28171 17.4289 6.81645C17.4289 5.35121 16.2411 4.16339 14.7759 4.16339H8.93909" stroke="#676879" stroke-linecap="round" stroke-linejoin="round"/><path d="M5.75547 4.16339H2.57178" stroke="#676879" stroke-linecap="round" stroke-linejoin="round"/></g><defs><clipPath id="clip0_1953_322815"><rect width="16" height="16" fill="white" transform="translate(2 2)"/></clipPath></defs></svg>