<svg width="18" height="24" viewBox="0 0 18 24" fill="none" xmlns="http://www.w3.org/2000/svg">
<path fill-rule="evenodd" clip-rule="evenodd" d="M11.9289 0H2C0.895431 0 0 0.89543 0 2V22C0 23.1046 0.89543 24 2 24H16C17.1046 24 18 23.1046 18 22V6.07106L11.9289 0Z" fill="#579BFC"/>
<path d="M14 16.5417L10.7691 11.4168C10.7124 11.3278 10.6359 11.2546 10.5462 11.2038C10.4565 11.1529 10.3564 11.1259 10.2545 11.125C10.1526 11.1242 10.0521 11.1495 9.96163 11.1988C9.87118 11.2481 9.79355 11.32 9.73552 11.4081L8.06996 13.9108L7.03723 13.0423C6.96945 12.9853 6.89115 12.9438 6.80731 12.9204C6.72347 12.897 6.63592 12.8921 6.55021 12.9062C6.46449 12.9202 6.38248 12.9528 6.30938 13.0019C6.23628 13.0511 6.17369 13.1156 6.12556 13.1916L4 16.5417H14Z" fill="white"/>
<path d="M5.29653 8C5.03956 8.00069 4.78857 8.07751 4.57524 8.22077C4.36191 8.36404 4.19583 8.56731 4.09797 8.80491C4.0001 9.04251 3.97485 9.30379 4.0254 9.55574C4.07596 9.80769 4.20004 10.039 4.38199 10.2205C4.56393 10.4019 4.79557 10.5254 5.04765 10.5753C5.29973 10.6252 5.56094 10.5992 5.79828 10.5007C6.03563 10.4022 6.23845 10.2356 6.38115 10.0219C6.52384 9.80817 6.6 9.55697 6.6 9.3C6.6 8.95522 6.46304 8.62456 6.21924 8.38076C5.97544 8.13696 5.64478 8 5.3 8" fill="white"/>
</svg>
