<svg data-name="Layer 1" xmlns="http://www.w3.org/2000/svg" viewBox="0 0 128 128"><path d="M123.164 50.549a1.748 1.748 0 0 0-1.412-1.191l-38.821-5.641L65.569 8.54a1.75 1.75 0 0 0-3.139 0L45.069 43.717l-38.82 5.641a1.75 1.75 0 0 0-.97 2.985L33.37 79.726l-6.632 38.664a1.75 1.75 0 0 0 2.539 1.845L64 101.98l34.723 18.254a1.75 1.75 0 0 0 2.539-1.845L94.63 79.726l28.092-27.382a1.75 1.75 0 0 0 .442-1.795zM91.528 77.862a1.749 1.749 0 0 0-.5 1.549l6.188 36.076-32.4-17.032a1.749 1.749 0 0 0-1.629 0l-32.4 17.032 6.187-36.076a1.749 1.749 0 0 0-.5-1.549l-26.213-25.55 36.222-5.263a1.75 1.75 0 0 0 1.318-.958L64 13.269l16.2 32.822a1.751 1.751 0 0 0 1.317.958l36.223 5.263z"/><path d="M78.776 50.945a1.75 1.75 0 0 0 1.479 1.983l21.885 3.18a1.8 1.8 0 0 0 .254.018 1.75 1.75 0 0 0 .25-3.482L80.76 49.465a1.744 1.744 0 0 0-1.984 1.48z"/></svg>