<svg xmlns="http://www.w3.org/2000/svg" xmlns:xlink="http://www.w3.org/1999/xlink" version="1.1" width="256" height="256" viewBox="0 0 256 256" xml:space="preserve">

<defs>
</defs>
<g style="stroke: none; stroke-width: 0; stroke-dasharray: none; stroke-linecap: butt; stroke-linejoin: miter; stroke-miterlimit: 10; fill: none; fill-rule: nonzero; opacity: 1;" transform="translate(27.094163424124503 27.094163424124474) scale(2.23 2.23)" >
	<path d="M 45 70.33 H 32.946 c -1.105 0 -2 -0.896 -2 -2 V 53.438 c 0 -7.75 6.305 -14.054 14.054 -14.054 c 0.117 0 0.231 0.01 0.342 0.029 c 6.098 -0.182 11.002 -5.199 11.002 -11.34 v -0.676 c 0 -3.125 -1.244 -6.036 -3.502 -8.197 c -2.258 -2.16 -5.219 -3.278 -8.358 -3.135 c -5.97 0.263 -10.828 5.535 -10.828 11.751 v 4.019 c 0 1.105 -0.896 2 -2 2 H 19.602 c -1.105 0 -2 -0.896 -2 -2 v -3.865 c 0 -15.039 11.967 -27.582 26.676 -27.961 c 7.449 -0.172 14.507 2.566 19.843 7.766 c 5.337 5.202 8.277 12.171 8.277 19.622 v 0.676 c 0 13.416 -9.986 25.059 -23.228 27.083 C 47.933 55.344 47 56.481 47 57.798 V 68.33 C 47 69.434 46.105 70.33 45 70.33 z M 44.381 4.008 C 31.821 4.331 21.602 15.08 21.602 27.969 v 1.865 h 8.054 v -2.019 c 0 -8.468 6.436 -15.385 14.652 -15.747 c 4.222 -0.189 8.246 1.32 11.299 4.241 c 3.055 2.923 4.737 6.86 4.737 11.088 v 0.676 c 0 8.461 -6.883 15.345 -15.344 15.345 c -0.115 0 -0.229 -0.01 -0.339 -0.028 c -5.387 0.179 -9.715 4.618 -9.715 10.049 v 12.892 H 43 v -8.531 c 0 -3.275 2.393 -6.112 5.566 -6.597 c 11.307 -1.728 19.832 -11.671 19.832 -23.128 v -0.676 c 0 -6.364 -2.511 -12.315 -7.068 -16.758 C 56.772 6.199 50.738 3.842 44.381 4.008 z" style="stroke: none; stroke-width: 1; stroke-dasharray: none; stroke-linecap: butt; stroke-linejoin: miter; stroke-miterlimit: 10; fill: rgb(136,136,136); fill-rule: nonzero; opacity: 1;" transform=" matrix(1 0 0 1 0 0) " stroke-linecap="round" />
	<path d="M 45 90.001 H 32.946 c -1.105 0 -2 -0.896 -2 -2 V 75.947 c 0 -1.105 0.896 -2 2 -2 H 45 c 1.105 0 2 0.896 2 2 v 12.054 C 47 89.105 46.105 90.001 45 90.001 z M 34.946 86.001 H 43 v -8.054 h -8.054 V 86.001 z" style="stroke: none; stroke-width: 1; stroke-dasharray: none; stroke-linecap: butt; stroke-linejoin: miter; stroke-miterlimit: 10; fill: rgb(136,136,136); fill-rule: nonzero; opacity: 1;" transform=" matrix(1 0 0 1 0 0) " stroke-linecap="round" />
</g>
</svg>